<svg xmlns="http://www.w3.org/2000/svg" width="760" height="315" viewBox="0 0 760 315">
<defs><marker id="ar" viewBox="0 0 10 10" refX="9" refY="5" markerWidth="6" markerHeight="6"
  orient="auto-start-reverse"><path d="M 0 0 L 10 5 L 0 10 z" fill="#1a3f6f"/></marker></defs>
<rect width="100%" height="100%" fill="#ffffff"/>
<text x="380.0" y="26" text-anchor="middle" font-family="Malgun Gothic, AppleGothic, NanumGothic, sans-serif" font-size="16" font-weight="bold" fill="#111">〔도해〕 자이언트에 페퍼로니를 몇 개 올려야 할까?</text>
<circle cx="110.0" cy="155.0" r="43.2" fill="#f2c14e" stroke="#8a5a2b" stroke-width="1.9"/>
<circle cx="110.0" cy="155.0" r="38.4" fill="#e9564b" stroke="#c8452f" stroke-width="1"/>
<circle cx="101.4" cy="157.8" r="3.7" fill="#9e2b25" stroke="#7c1f1a" stroke-width="0.7"/>
<circle cx="105.3" cy="148.1" r="3.7" fill="#9e2b25" stroke="#7c1f1a" stroke-width="0.7"/>
<circle cx="115.4" cy="147.7" r="3.7" fill="#9e2b25" stroke="#7c1f1a" stroke-width="0.7"/>
<circle cx="118.6" cy="157.9" r="3.7" fill="#9e2b25" stroke="#7c1f1a" stroke-width="0.7"/>
<circle cx="110.0" cy="164.2" r="3.7" fill="#9e2b25" stroke="#7c1f1a" stroke-width="0.7"/>
<circle cx="120.2" cy="178.5" r="3.7" fill="#9e2b25" stroke="#7c1f1a" stroke-width="0.7"/>
<circle cx="106.1" cy="180.5" r="3.7" fill="#9e2b25" stroke="#7c1f1a" stroke-width="0.7"/>
<circle cx="93.3" cy="174.5" r="3.7" fill="#9e2b25" stroke="#7c1f1a" stroke-width="0.7"/>
<circle cx="84.8" cy="161.2" r="3.7" fill="#9e2b25" stroke="#7c1f1a" stroke-width="0.7"/>
<circle cx="85.3" cy="147.1" r="3.7" fill="#9e2b25" stroke="#7c1f1a" stroke-width="0.7"/>
<circle cx="93.0" cy="134.8" r="3.7" fill="#9e2b25" stroke="#7c1f1a" stroke-width="0.7"/>
<circle cx="107.2" cy="130.0" r="3.7" fill="#9e2b25" stroke="#7c1f1a" stroke-width="0.7"/>
<circle cx="121.3" cy="132.1" r="3.7" fill="#9e2b25" stroke="#7c1f1a" stroke-width="0.7"/>
<circle cx="131.2" cy="140.9" r="3.7" fill="#9e2b25" stroke="#7c1f1a" stroke-width="0.7"/>
<circle cx="136.3" cy="156.1" r="3.7" fill="#9e2b25" stroke="#7c1f1a" stroke-width="0.7"/>
<circle cx="131.9" cy="169.9" r="3.7" fill="#9e2b25" stroke="#7c1f1a" stroke-width="0.7"/>
<text x="110.0" y="250.0" text-anchor="middle" font-family="Malgun Gothic, AppleGothic, NanumGothic, sans-serif" font-size="16" font-weight="bold" fill="#111">미디엄 · 16개</text>
<text x="110.0" y="270.0" text-anchor="middle" font-family="Malgun Gothic, AppleGothic, NanumGothic, sans-serif" font-size="13" fill="#333">1개당 피자 넓이 28.26 cm²</text>
<circle cx="365.0" cy="155.0" r="64.8" fill="#f2c14e" stroke="#8a5a2b" stroke-width="2.9"/>
<circle cx="365.0" cy="155.0" r="57.7" fill="#e9564b" stroke="#c8452f" stroke-width="1"/>
<circle cx="370.9" cy="152.5" r="3.7" fill="#9e2b25" stroke="#7c1f1a" stroke-width="0.7"/>
<circle cx="357.5" cy="155.8" r="3.7" fill="#9e2b25" stroke="#7c1f1a" stroke-width="0.7"/>
<circle cx="383.6" cy="154.2" r="3.7" fill="#9e2b25" stroke="#7c1f1a" stroke-width="0.7"/>
<circle cx="378.0" cy="167.7" r="3.7" fill="#9e2b25" stroke="#7c1f1a" stroke-width="0.7"/>
<circle cx="365.5" cy="174.5" r="3.7" fill="#9e2b25" stroke="#7c1f1a" stroke-width="0.7"/>
<circle cx="351.2" cy="168.4" r="3.7" fill="#9e2b25" stroke="#7c1f1a" stroke-width="0.7"/>
<circle cx="346.6" cy="155.9" r="3.7" fill="#9e2b25" stroke="#7c1f1a" stroke-width="0.7"/>
<circle cx="350.8" cy="141.0" r="3.7" fill="#9e2b25" stroke="#7c1f1a" stroke-width="0.7"/>
<circle cx="365.7" cy="136.7" r="3.7" fill="#9e2b25" stroke="#7c1f1a" stroke-width="0.7"/>
<circle cx="378.1" cy="140.9" r="3.7" fill="#9e2b25" stroke="#7c1f1a" stroke-width="0.7"/>
<circle cx="340.4" cy="137.1" r="3.7" fill="#9e2b25" stroke="#7c1f1a" stroke-width="0.7"/>
<circle cx="351.6" cy="126.9" r="3.7" fill="#9e2b25" stroke="#7c1f1a" stroke-width="0.7"/>
<circle cx="366.8" cy="124.2" r="3.7" fill="#9e2b25" stroke="#7c1f1a" stroke-width="0.7"/>
<circle cx="381.0" cy="127.9" r="3.7" fill="#9e2b25" stroke="#7c1f1a" stroke-width="0.7"/>
<circle cx="390.7" cy="137.0" r="3.7" fill="#9e2b25" stroke="#7c1f1a" stroke-width="0.7"/>
<circle cx="397.2" cy="152.9" r="3.7" fill="#9e2b25" stroke="#7c1f1a" stroke-width="0.7"/>
<circle cx="394.4" cy="167.3" r="3.7" fill="#9e2b25" stroke="#7c1f1a" stroke-width="0.7"/>
<circle cx="384.8" cy="178.9" r="3.7" fill="#9e2b25" stroke="#7c1f1a" stroke-width="0.7"/>
<circle cx="371.0" cy="185.3" r="3.7" fill="#9e2b25" stroke="#7c1f1a" stroke-width="0.7"/>
<circle cx="357.2" cy="186.1" r="3.7" fill="#9e2b25" stroke="#7c1f1a" stroke-width="0.7"/>
<circle cx="343.5" cy="178.2" r="3.7" fill="#9e2b25" stroke="#7c1f1a" stroke-width="0.7"/>
<circle cx="336.0" cy="166.1" r="3.7" fill="#9e2b25" stroke="#7c1f1a" stroke-width="0.7"/>
<circle cx="334.3" cy="150.8" r="3.7" fill="#9e2b25" stroke="#7c1f1a" stroke-width="0.7"/>
<circle cx="407.8" cy="144.5" r="3.7" fill="#9e2b25" stroke="#7c1f1a" stroke-width="0.7"/>
<circle cx="408.2" cy="165.8" r="3.7" fill="#9e2b25" stroke="#7c1f1a" stroke-width="0.7"/>
<circle cx="398.2" cy="184.3" r="3.7" fill="#9e2b25" stroke="#7c1f1a" stroke-width="0.7"/>
<circle cx="380.2" cy="195.6" r="3.7" fill="#9e2b25" stroke="#7c1f1a" stroke-width="0.7"/>
<circle cx="360.7" cy="199.6" r="3.7" fill="#9e2b25" stroke="#7c1f1a" stroke-width="0.7"/>
<circle cx="339.7" cy="190.9" r="3.7" fill="#9e2b25" stroke="#7c1f1a" stroke-width="0.7"/>
<circle cx="326.6" cy="176.1" r="3.7" fill="#9e2b25" stroke="#7c1f1a" stroke-width="0.7"/>
<circle cx="321.9" cy="156.0" r="3.7" fill="#9e2b25" stroke="#7c1f1a" stroke-width="0.7"/>
<circle cx="326.3" cy="134.9" r="3.7" fill="#9e2b25" stroke="#7c1f1a" stroke-width="0.7"/>
<circle cx="339.2" cy="118.1" r="3.7" fill="#9e2b25" stroke="#7c1f1a" stroke-width="0.7"/>
<circle cx="360.2" cy="112.0" r="3.7" fill="#9e2b25" stroke="#7c1f1a" stroke-width="0.7"/>
<circle cx="380.9" cy="114.1" r="3.7" fill="#9e2b25" stroke="#7c1f1a" stroke-width="0.7"/>
<circle cx="397.3" cy="125.1" r="3.7" fill="#9e2b25" stroke="#7c1f1a" stroke-width="0.7"/>
<text x="365.0" y="250.0" text-anchor="middle" font-family="Malgun Gothic, AppleGothic, NanumGothic, sans-serif" font-size="16" font-weight="bold" fill="#111">자이언트 · 36개  ✔</text>
<text x="365.0" y="270.0" text-anchor="middle" font-family="Malgun Gothic, AppleGothic, NanumGothic, sans-serif" font-size="13" fill="#333">1개당 피자 넓이 28.26 cm² (미디엄과 같음)</text>
<circle cx="625.0" cy="155.0" r="64.8" fill="#f2c14e" stroke="#8a5a2b" stroke-width="2.9"/>
<circle cx="625.0" cy="155.0" r="57.7" fill="#e9564b" stroke="#c8452f" stroke-width="1"/>
<circle cx="617.0" cy="151.4" r="3.7" fill="#9e2b25" stroke="#7c1f1a" stroke-width="0.7"/>
<circle cx="633.1" cy="150.5" r="3.7" fill="#9e2b25" stroke="#7c1f1a" stroke-width="0.7"/>
<circle cx="625.3" cy="163.6" r="3.7" fill="#9e2b25" stroke="#7c1f1a" stroke-width="0.7"/>
<circle cx="611.0" cy="134.9" r="3.7" fill="#9e2b25" stroke="#7c1f1a" stroke-width="0.7"/>
<circle cx="626.1" cy="130.2" r="3.7" fill="#9e2b25" stroke="#7c1f1a" stroke-width="0.7"/>
<circle cx="639.7" cy="133.8" r="3.7" fill="#9e2b25" stroke="#7c1f1a" stroke-width="0.7"/>
<circle cx="649.8" cy="147.7" r="3.7" fill="#9e2b25" stroke="#7c1f1a" stroke-width="0.7"/>
<circle cx="649.5" cy="163.4" r="3.7" fill="#9e2b25" stroke="#7c1f1a" stroke-width="0.7"/>
<circle cx="639.8" cy="175.9" r="3.7" fill="#9e2b25" stroke="#7c1f1a" stroke-width="0.7"/>
<circle cx="625.6" cy="181.5" r="3.7" fill="#9e2b25" stroke="#7c1f1a" stroke-width="0.7"/>
<circle cx="609.8" cy="175.6" r="3.7" fill="#9e2b25" stroke="#7c1f1a" stroke-width="0.7"/>
<circle cx="600.4" cy="162.5" r="3.7" fill="#9e2b25" stroke="#7c1f1a" stroke-width="0.7"/>
<circle cx="601.6" cy="147.7" r="3.7" fill="#9e2b25" stroke="#7c1f1a" stroke-width="0.7"/>
<circle cx="596.8" cy="122.9" r="3.7" fill="#9e2b25" stroke="#7c1f1a" stroke-width="0.7"/>
<circle cx="618.4" cy="112.9" r="3.7" fill="#9e2b25" stroke="#7c1f1a" stroke-width="0.7"/>
<circle cx="642.3" cy="116.6" r="3.7" fill="#9e2b25" stroke="#7c1f1a" stroke-width="0.7"/>
<circle cx="659.5" cy="131.2" r="3.7" fill="#9e2b25" stroke="#7c1f1a" stroke-width="0.7"/>
<circle cx="667.4" cy="155.0" r="3.7" fill="#9e2b25" stroke="#7c1f1a" stroke-width="0.7"/>
<circle cx="661.0" cy="178.1" r="3.7" fill="#9e2b25" stroke="#7c1f1a" stroke-width="0.7"/>
<circle cx="642.5" cy="193.1" r="3.7" fill="#9e2b25" stroke="#7c1f1a" stroke-width="0.7"/>
<circle cx="619.9" cy="197.4" r="3.7" fill="#9e2b25" stroke="#7c1f1a" stroke-width="0.7"/>
<circle cx="598.4" cy="187.8" r="3.7" fill="#9e2b25" stroke="#7c1f1a" stroke-width="0.7"/>
<circle cx="584.7" cy="167.2" r="3.7" fill="#9e2b25" stroke="#7c1f1a" stroke-width="0.7"/>
<circle cx="584.9" cy="143.7" r="3.7" fill="#9e2b25" stroke="#7c1f1a" stroke-width="0.7"/>
<text x="625.0" y="250.0" text-anchor="middle" font-family="Malgun Gothic, AppleGothic, NanumGothic, sans-serif" font-size="16" font-weight="bold" fill="#111">자이언트 · 24개  ✘</text>
<text x="625.0" y="270.0" text-anchor="middle" font-family="Malgun Gothic, AppleGothic, NanumGothic, sans-serif" font-size="13" fill="#333">1개당 피자 넓이 42.39 cm² (듬성해짐)</text>
<text x="380.0" y="303" text-anchor="middle" font-family="Malgun Gothic, AppleGothic, NanumGothic, sans-serif" font-size="13" fill="#8a1c1c">지름이 1.5배이면 넓이는 1.5 × 1.5 = 2.25배이므로 16 × 2.25 = 36개가 필요하다</text>
</svg>